<svg xmlns="http://www.w3.org/2000/svg" viewBox="0 0 512 512" fill="#ffde59" xmlns:v="https://vecta.io/nano"><path d="M486.4 38.4H25.6C11.46 38.4 0 49.86 0 64v384c0 14.14 11.46 25.6 25.6 25.6h460.8c14.14 0 25.6-11.46 25.6-25.6V64c0-14.14-11.46-25.6-25.6-25.6zm0 409.6H25.6V166.4h460.8V448zm0-307.2H25.6V64h460.8v76.8z"/><circle cx="448" cy="102.4" r="12.8"/><circle cx="396.8" cy="102.4" r="12.8"/><circle cx="345.6" cy="102.4" r="12.8"/><path d="M278.298 217.984c-6.929-1.783-13.824 2.449-15.522 9.31l-38.4 153.6c-1.698 6.852 2.449 13.807 9.327 15.522 1.05.256 2.074.384 3.098.384 5.751 0 10.974-3.874 12.425-9.702l38.4-153.6c1.697-6.853-2.451-13.799-9.328-15.514zm-80.572 128.964L118.221 307.2l79.497-39.748c6.323-3.166 8.875-10.846 5.726-17.178-3.174-6.34-10.829-8.866-17.178-5.726l-102.4 51.2A12.84 12.84 0 0 0 76.8 307.2c0 4.847 2.748 9.276 7.074 11.452l102.4 51.2c1.852.913 3.797 1.348 5.726 1.348 4.676 0 9.199-2.586 11.452-7.074 3.149-6.323.597-14.012-5.726-17.178zm230.4-51.2l-102.4-51.2c-1.852-.905-3.797-1.348-5.726-1.348-4.676 0-9.199 2.586-11.452 7.074-3.149 6.323-.597 14.012 5.726 17.178l79.505 39.748-79.497 39.748c-6.332 3.166-8.883 10.854-5.734 17.178 3.174 6.34 10.829 8.866 17.178 5.726l102.4-51.2c4.326-2.176 7.074-6.596 7.074-11.452s-2.748-9.276-7.074-11.452z"/></svg>