<svg width="65" height="74" viewBox="0 0 65 74" fill="none" xmlns="http://www.w3.org/2000/svg">
<path d="M51.9829 50.8165C49.2458 49.8298 46.472 48.4762 44.7999 47.4669C44.4481 47.2431 44.0316 47.1118 43.5837 47.1118C42.9772 47.1118 42.4277 47.3508 42.02 47.7378C42.0182 47.7387 42.0162 47.7396 42.0142 47.7405C39.387 50.3088 34.5295 51.0822 32.8766 51.0822C32.7354 51.0822 32.4471 51.0843 32.296 51.0853C32.1449 51.0841 31.8567 51.0822 31.7155 51.0822C30.0622 51.0822 25.2051 50.309 22.5777 47.7405C22.5758 47.7396 22.5738 47.7387 22.5719 47.7378C22.1644 47.3505 21.6148 47.1118 21.0083 47.1118C20.5604 47.1118 20.1439 47.2431 19.792 47.4669C18.1201 48.4762 15.3463 49.8298 12.6089 50.8165C3.91152 53.9526 0 57.1505 0 59.332C0 60.9668 0 68.2017 0 71.7048C2.83678e-07 72.4925 0.97146 73.6184 1.91358 73.6184H62.6786C63.6412 73.6184 64.5922 72.4925 64.5922 71.7048C64.5922 68.2017 64.5922 60.9668 64.5922 59.332C64.592 57.1505 60.6805 53.9526 51.9829 50.8165Z" fill="#EEEAEE"/>
<path d="M46.1991 23.6616C46.1991 23.6616 46.9008 20.1982 47.1023 17.5252C47.3662 14.0189 51.7775 9.0172 49.8385 9.0172C46.4256 9.0172 43.2931 8.03344 40.4588 6.84061C37.6245 5.64778 35.1533 0.810913 32.4501 0.810913C32.4265 0.810913 32.3346 0.810913 32.3112 0.810913C29.608 0.810913 27.137 5.64763 24.3024 6.84061C21.4677 8.03358 18.3357 9.0172 14.9225 9.0172C12.9837 9.0172 17.3948 14.0187 17.6589 17.5252C17.8602 20.1982 18.5619 23.6616 18.5619 23.6616C18.5619 23.6616 17.2855 24.2443 17.2855 26.5874C17.7329 32.4665 20.0711 29.9326 20.5536 32.5085C21.3555 36.7903 25.1468 39.8879 27.507 40.9578C29.0637 41.6631 30.6727 41.9724 32.3805 41.9151C34.0882 41.9724 35.6972 41.6634 37.254 40.9578C39.6142 39.8879 43.4055 36.7903 44.2073 32.5085C44.6898 29.9326 47.028 32.4665 47.4757 26.5874C47.4757 24.2443 46.1991 23.6616 46.1991 23.6616ZM35.7781 10.5875C35.7781 12.2083 33.5458 13.9047 32.3806 13.9047C31.2157 13.9047 28.9834 12.2083 28.9834 10.5875C28.9834 9.9053 28.9834 8.86491 28.9834 8.29599C28.9834 8.28482 28.9855 8.27483 28.9858 8.26395C28.9858 8.26068 28.9853 8.2574 28.9853 8.25412C28.9853 7.71157 29.4112 7.26991 29.9467 7.2416C29.9591 7.23847 29.9679 7.23608 29.9679 7.23608H32.3955L34.7635 7.23906C34.7787 7.23832 34.7931 7.23668 34.8085 7.23668C35.3169 7.23668 35.6987 7.60891 35.7656 8.09647C35.7674 8.10541 35.7679 8.1145 35.7693 8.12359C35.7711 8.13983 35.7724 8.15652 35.7736 8.17306C35.775 8.19094 35.7782 8.20808 35.7782 8.2264C35.7781 8.82408 35.7781 9.84227 35.7781 10.5875Z" fill="#EEEAEE"/>
</svg>
