<svg width="80" height="72" viewBox="0 0 80 72" fill="none" xmlns="http://www.w3.org/2000/svg">
<path d="M28.2422 32C31.3671 32 34.4219 31.0616 37.0202 29.3035C39.6185 27.5454 41.6436 25.0466 42.8395 22.1229C44.0353 19.1993 44.3482 15.9823 43.7386 12.8786C43.1289 9.77486 41.6241 6.92394 39.4144 4.6863C37.2048 2.44866 34.3895 0.924806 31.3246 0.307443C28.2597 -0.309921 25.0828 0.00693249 22.1958 1.21793C19.3087 2.42894 16.8411 4.4797 15.1049 7.11088C13.3688 9.74207 12.4422 12.8355 12.4422 16C12.4422 20.2435 14.1068 24.3131 17.0699 27.3137C20.0329 30.3143 24.0517 32 28.2422 32Z" fill="#EEEAEE"/>
<path d="M59.8422 40C62.1859 40 64.4769 39.2962 66.4257 37.9777C68.3744 36.6591 69.8932 34.7849 70.7901 32.5922C71.687 30.3995 71.9217 27.9867 71.4645 25.659C71.0072 23.3312 69.8786 21.193 68.2214 19.5148C66.5641 17.8365 64.4527 16.6936 62.154 16.2306C59.8553 15.7676 57.4727 16.0052 55.3074 16.9135C53.1421 17.8217 51.2913 19.3598 49.9893 21.3332C48.6872 23.3066 47.9922 25.6267 47.9922 28C47.9922 31.1826 49.2406 34.2349 51.4629 36.4853C53.6853 38.7357 56.6993 40 59.8422 40Z" fill="#EEEAEE"/>
<path d="M75.6422 68C76.6898 68 77.6945 67.5786 78.4352 66.8284C79.176 66.0783 79.5922 65.0609 79.5922 64C79.589 60.2616 78.5512 56.5989 76.5965 53.4275C74.6418 50.2561 71.8485 47.703 68.5335 46.0579C65.2185 44.4127 61.5146 43.7414 57.8419 44.12C54.1691 44.4986 50.6748 45.9121 47.7552 48.2C43.8862 44.2974 38.9627 41.6424 33.6056 40.5697C28.2484 39.497 22.6976 40.0548 17.6531 42.1725C12.6086 44.2903 8.2963 47.8734 5.26004 52.4697C2.22379 57.0661 0.59955 62.4701 0.592163 68C0.592163 69.0609 1.00832 70.0783 1.74909 70.8284C2.48986 71.5786 3.49456 72 4.54216 72H51.9422C52.9898 72 53.9945 71.5786 54.7352 70.8284C55.476 70.0783 55.8922 69.0609 55.8922 68" fill="#EEEAEE"/>
</svg>
