<svg width="69" height="60" viewBox="0 0 69 60" fill="none" xmlns="http://www.w3.org/2000/svg">
<path d="M60.1423 17.9206C58.9464 18.4264 57.6228 18.4419 56.4156 17.9642C55.2081 17.4863 54.2615 16.5725 53.7493 15.391C53.5538 14.9394 53.2042 14.573 52.7651 14.3514C52.2787 15.5442 52.511 16.9614 53.4752 17.9408C54.8592 19.3464 54.8279 21.6025 53.4055 22.9702L45.2045 30.8556C45.2803 30.9657 45.3471 31.0843 45.4019 31.2115C45.7588 32.03 45.5441 32.9489 44.9341 33.5355C44.7535 33.7091 44.536 33.8542 44.2904 33.9588C43.582 34.2585 42.7997 34.1444 42.217 33.7284L23.3607 51.859C21.9382 53.2267 19.6553 53.1958 18.2713 51.7901C16.9688 50.4672 14.8199 50.4379 13.481 51.7253C13.0633 52.1269 12.5706 52.4045 12.0489 52.5656L13.1473 55.101C13.6073 56.1634 14.852 56.6557 15.9267 56.2009C18.3948 55.1568 21.2628 56.2915 22.3197 58.7308C22.7799 59.7932 24.0245 60.2854 25.0993 59.8305L63.6354 43.526C63.8816 43.4218 64.0975 43.2773 64.2787 43.103C64.8883 42.5169 65.1032 41.5983 64.7483 40.7793C63.9606 38.9608 64.3947 36.8126 65.8287 35.4338C66.2557 35.0233 66.7537 34.6962 67.3083 34.4615C67.8245 34.2431 68.2318 33.831 68.4404 33.3159C68.6491 32.8007 68.6424 32.2249 68.4212 31.7148L62.9216 19.0206C62.4618 17.9584 61.2172 17.4659 60.1423 17.9206ZM49.9023 41.5969C50.2575 42.4169 50.0429 43.3359 49.4329 43.9223C49.2523 44.0961 49.0362 44.2394 48.7893 44.3456C47.7153 44.8 46.4708 44.3067 46.0106 43.2456C45.5495 42.1829 46.0485 40.9529 47.1221 40.4983C48.1989 40.0438 49.4423 40.5357 49.9023 41.5969ZM47.652 36.4042C48.0072 37.2242 47.794 38.1418 47.1841 38.7282C47.0019 38.9034 46.786 39.0468 46.5405 39.1515C45.465 39.6073 44.2203 39.1141 43.7619 38.0516C43.3005 36.989 43.7981 35.7603 44.8734 35.3044C45.9474 34.8496 47.1921 35.3431 47.652 36.4042ZM56.0376 29.4436C56.3922 30.2625 56.1774 31.1813 55.5678 31.7675C55.3865 31.9418 55.1709 32.0864 54.9246 32.1906L51.7132 33.5494C50.6381 34.004 49.3939 33.5118 48.9335 32.4496C48.4733 31.387 48.9723 30.1571 50.0464 29.7026L53.2578 28.3438C54.3327 27.8891 55.5773 28.3813 56.0376 29.4436Z" fill="#EEEAEE"/>
<path d="M11.414 49.6259C13.9241 47.2124 17.9532 47.267 20.3954 49.7475C20.6397 49.9956 21.0425 50.0009 21.2934 49.7596L51.3383 20.871C51.5894 20.6296 51.5948 20.2315 51.3506 19.9835C48.9084 17.5031 48.9636 13.5214 51.4737 11.108C51.7247 10.8666 51.7301 10.4685 51.486 10.2205L41.7416 0.323405C41.4973 0.0752817 41.0945 0.069975 40.8436 0.311249C38.3335 2.7247 34.3045 2.67016 31.8622 0.189661C31.618 -0.0584616 31.2151 -0.0637708 30.9642 0.177503L0.919441 29.066C0.668361 29.3074 0.662989 29.7055 0.907138 29.9534C3.34935 32.4339 3.29415 36.4156 0.7841 38.829C0.53302 39.0704 0.527648 39.4685 0.771797 39.7165L10.5161 49.6136C10.76 49.8618 11.1629 49.8673 11.414 49.6259ZM34.6675 13.8393L37.1711 11.432C38.0092 10.6262 39.3497 10.6444 40.165 11.4725C40.9804 12.3007 40.962 13.6254 40.124 14.4312L37.6203 16.8385C36.7823 17.6443 35.4418 17.6261 34.6264 16.798C33.8111 15.9698 33.8294 14.6451 34.6675 13.8393ZM21.8019 10.6738C22.6409 9.86699 23.9807 9.88643 24.7958 10.7143C25.6107 11.542 25.5938 12.8661 24.7548 13.6729C23.917 14.4784 22.5758 14.4601 21.7609 13.6324C20.9458 12.8045 20.9642 11.4792 21.8019 10.6738ZM25.7882 14.7225C26.6272 13.9158 27.967 13.9352 28.782 14.7631C29.597 15.5908 29.5801 16.9149 28.741 17.7217C27.9033 18.5272 26.5621 18.5089 25.7472 17.6811C24.9321 16.8533 24.9504 15.528 25.7882 14.7225ZM29.7744 18.7713C30.6135 17.9645 31.9532 17.984 32.7683 18.8118C33.5833 19.6395 33.5664 20.9637 32.7273 21.7704C31.8896 22.5759 30.5484 22.5576 29.7334 21.7299C28.9184 20.9021 28.9367 19.5768 29.7744 18.7713ZM33.7609 22.8202C34.5999 22.0134 35.9397 22.0329 36.7547 22.8607C37.5697 23.6885 37.5528 25.0126 36.7137 25.8194C35.876 26.6248 34.5348 26.6065 33.7199 25.7788C32.9048 24.951 32.9231 23.6257 33.7609 22.8202ZM37.7471 26.869C38.5862 26.0622 39.9259 26.0817 40.741 26.9095C41.556 27.7372 41.5391 29.0614 40.7 29.8681C39.8623 30.6736 38.5211 30.6553 37.7061 29.8276C36.8911 28.9997 36.9094 27.6745 37.7471 26.869Z" fill="#EEEAEE"/>
</svg>
