<svg xmlns="http://www.w3.org/2000/svg" viewBox="0 0 164.371 164.367"><path fill="#fff" d="M44.5 164.367A44.542 44.542 0 010 119.879V44.5A44.547 44.547 0 0144.5 0h75.383a44.543 44.543 0 0144.492 44.5v75.383a44.539 44.539 0 01-44.492 44.488zm-7.254-82.184a45 45 0 0044.945 44.945 44.993 44.993 0 0044.941-44.945 44.993 44.993 0 00-44.941-44.945 45 45 0 00-44.949 44.946zm77.684-47.625a13.3 13.3 0 0013.281 13.285 13.3 13.3 0 0013.281-13.285 13.3 13.3 0 00-13.281-13.281 13.3 13.3 0 00-13.285 13.282zM46.883 82.183a35.348 35.348 0 0135.309-35.3 35.346 35.346 0 0135.309 35.3 35.349 35.349 0 01-35.309 35.309 35.352 35.352 0 01-35.313-35.308zm77.684-47.625a3.643 3.643 0 013.645-3.641 3.648 3.648 0 013.648 3.641 3.655 3.655 0 01-3.648 3.648 3.649 3.649 0 01-3.649-3.647z"/></svg>