<svg xmlns="http://www.w3.org/2000/svg" width="31.5" height="31.5" xmlns:v="https://vecta.io/nano"><path d="M28.125 0H3.375C1.511 0 0 1.511 0 3.375v24.75C0 29.989 1.511 31.5 3.375 31.5h24.75c1.864 0 3.375-1.511 3.375-3.375V3.375C31.5 1.511 29.989 0 28.125 0zm-1.152 21.612l-1.055 4.57c-.11.478-.536.818-1.027.818C13.63 26.999 4.501 17.87 4.5 6.609a1.1 1.1 0 0 1 .818-1.027l4.57-1.055a1.28 1.28 0 0 1 .237-.027c.415.021.787.265.97.639l2.105 4.922a1.26 1.26 0 0 1 .085.416 1.2 1.2 0 0 1-.387.816l-2.664 2.18c1.614 3.421 4.368 6.175 7.789 7.789l2.18-2.664a1.2 1.2 0 0 1 .816-.387c.142.005.283.033.416.085l4.922 2.109c.374.183.618.554.639.97-.001.08-.01.159-.027.237z" fill="#fff"/></svg>